<svg id="Group_84" data-name="Group 84" xmlns="http://www.w3.org/2000/svg" width="205.943" height="35.012" viewBox="0 0 205.943 35.012">
  <path id="Path_1085" data-name="Path 1085" d="M648.651,436.345h3.094l-5.073-6.752,4.687-5.693h-2.982l-3.583,4.763h-.721V423.9H641.8v12.445h2.269v-5.491h.8Z" transform="translate(-456.979 -420.325)" fill="#003368"/>
  <path id="Path_1086" data-name="Path 1086" d="M536.444,427.234a1.156,1.156,0,0,0-.44-.976,1.693,1.693,0,0,0-1.08-.343H533.04v3.844h1.885a2.157,2.157,0,0,0,1.052-.258.9.9,0,0,0,.467-.859Zm-1.52-3.333a5.338,5.338,0,0,1,1.52.211,3.391,3.391,0,0,1,1.2.633,2.933,2.933,0,0,1,.789,1.043,3.479,3.479,0,0,1,.282,1.447v1.409a2.892,2.892,0,0,1-.3,1.352,2.84,2.84,0,0,1-.814.979,3.512,3.512,0,0,1-1.188.594,5.043,5.043,0,0,1-1.447.2h-1.92v4.574h-2.271V423.9Z" transform="translate(-440.628 -420.325)" fill="#003368"/>
  <path id="Path_1087" data-name="Path 1087" d="M549.567,427.734a1.62,1.62,0,0,0-.23-.869,2.055,2.055,0,0,0-.593-.632,2.791,2.791,0,0,0-.833-.393,3.378,3.378,0,0,0-.959-.139h-.294a3.746,3.746,0,0,0-.97.128,2.69,2.69,0,0,0-.851.385,1.947,1.947,0,0,0-.6.633,1.679,1.679,0,0,0-.218.867v4.74a1.821,1.821,0,0,0,.218.914,1.874,1.874,0,0,0,.587.632,2.679,2.679,0,0,0,.842.365,4.138,4.138,0,0,0,1.007.12h.275a4.064,4.064,0,0,0,.987-.12,2.414,2.414,0,0,0,.831-.373,1.986,1.986,0,0,0,.578-.642,1.777,1.777,0,0,0,.219-.9Zm-.788-3.772a4.895,4.895,0,0,1,1.556.8,4.072,4.072,0,0,1,1.089,1.26,3.428,3.428,0,0,1,.412,1.694v4.74a3.666,3.666,0,0,1-1.454,3.019,4.633,4.633,0,0,1-1.555.767,6.714,6.714,0,0,1-1.875.259h-.275a6.881,6.881,0,0,1-1.9-.259,4.7,4.7,0,0,1-1.564-.757,3.639,3.639,0,0,1-1.061-1.265,3.759,3.759,0,0,1-.393-1.763v-4.74a3.5,3.5,0,0,1,.4-1.711,3.929,3.929,0,0,1,1.08-1.263,4.785,4.785,0,0,1,1.564-.788,6.52,6.52,0,0,1,1.857-.264h.294A6.13,6.13,0,0,1,548.779,423.963Z" transform="translate(-442.246 -420.293)" fill="#003368"/>
  <path id="Path_1088" data-name="Path 1088" d="M557.978,423.9v10.432h5.207v2.012h-7.476V423.9Z" transform="translate(-444.301 -420.325)" fill="#003368"/>
  <rect id="Rectangle_61" data-name="Rectangle 61" width="2.269" height="12.445" transform="translate(120.515 3.576)" fill="#003368"/>
  <path id="Path_1089" data-name="Path 1089" d="M570.925,425.915V423.9h9.663v2.033h-3.716v10.412H574.6V425.934Z" transform="translate(-446.541 -420.325)" fill="#003368"/>
  <path id="Path_1090" data-name="Path 1090" d="M586.4,430.894v3.44h5.1v2.012h-7.374V423.9h6.991v2.014H586.4v3.059h3.971v1.92Z" transform="translate(-448.487 -420.325)" fill="#003368"/>
  <path id="Path_1091" data-name="Path 1091" d="M599.312,425.7a3.178,3.178,0,0,0-.942.139,2.478,2.478,0,0,0-.787.393,1.809,1.809,0,0,0-.53.632,1.875,1.875,0,0,0-.192.869v4.721a1.743,1.743,0,0,0,.705,1.546,3.054,3.054,0,0,0,1.764.485,5.571,5.571,0,0,0,1.729-.258,3.922,3.922,0,0,0,1.421-.806l.987,1.669a5.185,5.185,0,0,1-1.931,1.115,7.864,7.864,0,0,1-2.206.293,6.577,6.577,0,0,1-1.874-.259,4.3,4.3,0,0,1-1.5-.757,3.532,3.532,0,0,1-1-1.265,3.99,3.99,0,0,1-.366-1.763v-4.721a3.751,3.751,0,0,1,.374-1.7,3.82,3.82,0,0,1,1.017-1.271,4.468,4.468,0,0,1,1.5-.8,6.024,6.024,0,0,1,1.83-.275,7.763,7.763,0,0,1,1.328.1,4.057,4.057,0,0,1,1.043.319,4.49,4.49,0,0,1,.877.55,10.663,10.663,0,0,1,.852.768l-1.244,1.537a5.968,5.968,0,0,0-1.254-.9,3.371,3.371,0,0,0-1.6-.357" transform="translate(-450.027 -420.293)" fill="#003368"/>
  <path id="Path_1092" data-name="Path 1092" d="M614.342,423.9h2.268v12.445h-2.268v-5.031h-5.1v5.031h-2.27V423.9h2.27v5.4h5.1Z" transform="translate(-451.849 -420.325)" fill="#003368"/>
  <path id="Path_1093" data-name="Path 1093" d="M629.367,423.9h2.014v12.445h-3.149l-5.049-9.826v9.826h-2.014V423.9h2.964l5.234,10.085Z" transform="translate(-453.941 -420.325)" fill="#003368"/>
  <rect id="Rectangle_62" data-name="Rectangle 62" width="2.268" height="12.445" transform="translate(179.993 3.576)" fill="#003368"/>
  <path id="Path_1094" data-name="Path 1094" d="M660.885,431.552l-1.593-5.4-1.608,5.4ZM660.7,423.8l3.989,12.534h-2.378l-.861-2.945h-4.338l-.878,2.945H653.82l4.117-12.534Z" transform="translate(-458.749 -420.309)" fill="#003368"/>
  <path id="Path_1095" data-name="Path 1095" d="M444.494,425.346l-1.8,1.352.763,1.016,1.459-1.1h1.7l.54-3.985-3.793-.689L443,424l1.251.218.139-.8,1.341.244-.227,1.682Z" transform="translate(-427.658 -420.036)" fill="#003368"/>
  <path id="Path_1096" data-name="Path 1096" d="M497.374,426.616l1.46,1.1.763-1.016-1.8-1.352h-1.007l-.229-1.682,1.34-.243.14.8,1.25-.218-.358-2.054-3.792.689.539,3.984Z" transform="translate(-435.381 -420.036)" fill="#003368"/>
  <path id="Path_1097" data-name="Path 1097" d="M497.1,444.6h-1.256v1.27h4.129l1.184,1.675-2.927,5.9h-4.341l.912-1.849h1.8l1.966-3.962h-4.817v-5.9l-5.519-4.135,1.219-1.6-1.009-.769-1.856,2.438v1.42l-6.181,1.354-1.926-.565v-1.063H477.2v8.207l-12.517,4.808-12.517-4.808v-9.457H450.9v1.065l-1.993.584h-6.113v-1.545l-1.856-2.438-1.01.769,1.22,1.6-5.52,4.135v5.9h-4.817l1.966,3.962h1.8l.913,1.849h-4.341l-2.928-5.9,1.184-1.675h4.131V444.6h-1.255v-5.118l2.369-1.777v-2.6l2.517-1.9-.74-.981,3.746-2.808,4.426,2.411v4.692l4.9.712.761-2.221h1.908V424.5H477.2v11.773h1.908l.82,2.4,4.844-2.281v-4.544l4.425-2.411,3.745,2.808-.738.981,2.517,1.9v2.6l2.371,1.777ZM449.4,429.357l.839-2.449h.661v4.439h-1.41l-3.621,2.719V431.1Zm-3.531,6.049.02.026-.02,0Zm5.031-1.656h-1.544l-.715,2.083-2.523-.368,3.8-2.851h.987Zm32.543,1.856-2.77,1.3L480.021,435h-1.547v-2.382h.988Zm-4.308-8.7.838,2.449,3.532,1.746v2.964l-3.621-2.719h-1.411v-4.439Zm22.16,6.932-.761,1.016,2.025,1.517,1.755-2.3v-1.033L500.8,430.4l-2.754,3.608v2.042l2.329,1.753v2.53l-.009.017-4.372-3.28v-2.6l-2.615-1.967.739-.986-3.694-2.767,1.143-.623,3.269,2.45-.736.982,2.365,1.772.762-1.018-2.359-1.766.737-.982-2.811-2.1.02-.011V426l3.508,2.629-.736.981,1.907,1.431.762-1.016-1.9-1.423.735-.984-4.277-3.2v-1.478l4.994,3.74-.735.983,1.429,1.071.762-1.017-1.423-1.063.735-.983-5.763-4.317v-1.645h-1.269v1.375l-2,.362.227,1.25,1.773-.32V426.7l-3.419,1.863-1.574-1.18-.762,1.016,1.11.833-2.047,1.116-3.847-1.9-.962-2.813h-1.57v-2.411H450.9v2.411h-1.569l-.961,2.813-3.847,1.9-2.048-1.116,1.111-.833-.762-1.016-1.573,1.18-3.419-1.863v-4.329l1.772.32.226-1.25-2-.362v-1.375h-1.27v1.645l-5.764,4.317.735.983-1.423,1.063.762,1.017,1.431-1.071-.737-.983,5-3.74v1.478l-4.279,3.2.738.984-1.9,1.423.762,1.016,1.907-1.431-.736-.981L436.562,426v1.454l.019.011-2.811,2.1.736.982-2.358,1.766.761,1.018,2.366-1.772-.737-.982,3.268-2.45,1.141.623-3.691,2.767.737.986-2.612,1.967v2.6l-4.374,3.28-.009-.017v-2.53l2.329-1.753v-2.042l-2.752-3.608-3.514,2.633v1.033l1.756,2.3,2.024-1.517-.761-1.016-1.016.761-.717-.942,1.982-1.485,1.729,2.265v.98l-2.331,1.754v3.594l1.036,1.358,2.249-1.686V444.6H428.75l-2,2.829,3.615,7.285H436.9l0-1.28-1.535-3.107h-1.8l-.706-1.425h4.04v-6.531l1.338-1,5.154,2.637v3.507l-1.225,1.733,1.168,2.351h1.8l.915,1.849h-4.34l-2.232-4.5,1.1-1.555V444.6H438.16v1.27H439.3V447l-1.3,1.843,2.917,5.881h6.537l0-1.28-1.536-3.107h-1.8l-.482-.967,1.022-1.445v-4.688l-5.293-2.706,2.155-1.617v1.577h7.565l1.812-.53V447.9l13.787,5.294,13.786-5.294V441.2l1.881.553,7.5-1.643v-1.2l2.154,1.617-5.292,2.706v4.688l1.02,1.445-.48.967h-1.8l-1.536,3.107,0,1.28h6.536l2.919-5.881L490.07,447v-1.121h1.146V444.6H488.8V447.4l1.1,1.555-2.231,4.5h-4.341l.914-1.849h1.8l1.168-2.351-1.226-1.733v-3.507l5.152-2.637,1.341,1v6.531h4.04l-.708,1.425h-1.8l-1.537,3.107,0,1.28h6.536l3.615-7.285-2-2.829h-2.261v-4.166l2.249,1.686,1.036-1.358v-3.594l-2.331-1.754v-.98l1.729-2.265,1.982,1.485-.718.942Z" transform="translate(-425.061 -419.707)" fill="#003368"/>
  <path id="Path_1098" data-name="Path 1098" d="M465.857,433.234a.748.748,0,0,0-.47-.148h-1.306v1.688h1.306a.936.936,0,0,0,.457-.113.389.389,0,0,0,.2-.374v-.628a.505.505,0,0,0-.19-.426" transform="translate(-430.807 -421.677)" fill="#003368"/>
  <path id="Path_1099" data-name="Path 1099" d="M477.771,432.526v1.168h-4.6v-1.17l-.241-1.879,1.134.764-.282,1.115h1.358l-.428-1.115.758-1.265.757,1.265-.429,1.115h1.358l-.281-1.113,1.135-.766Zm-.326,5.585-1.458-.183.192,1.459h-1.405l.193-1.45-1.467.174v-1.4l1.467.2-.193-1.46h1.405l-.192,1.44,1.458-.176Zm0,5.69-1.458-.182.192,1.458h-1.405l.193-1.447-1.467.171v-1.4l1.467.2-.193-1.462h1.405l-.192,1.442,1.458-.176Zm-7.465,1.367h-.8V431.123h.8Zm-3.8-11.81a1.227,1.227,0,0,1-.484,1.016,1.612,1.612,0,0,1-.518.258,2.2,2.2,0,0,1-.628.088h-1.322v1.971h-.986v-5.407h2.29a2.286,2.286,0,0,1,.661.09,1.508,1.508,0,0,1,.521.275,1.282,1.282,0,0,1,.343.454,1.5,1.5,0,0,1,.122.628Zm-.14,10.5q-.263.15-.5.275a3.865,3.865,0,0,1-.467.208,2.4,2.4,0,0,1-.479.131,3.233,3.233,0,0,1-.553.044,3.186,3.186,0,0,1-.842-.106,2.026,2.026,0,0,1-.677-.321,1.521,1.521,0,0,1-.448-.546,1.747,1.747,0,0,1-.164-.783v-2.053a1.616,1.616,0,0,1,.171-.759,1.573,1.573,0,0,1,.461-.548,2.118,2.118,0,0,1,.678-.335,2.85,2.85,0,0,1,.813-.116,3.066,3.066,0,0,1,1,.159,2.369,2.369,0,0,1,.842.517l-.443.717a2.6,2.6,0,0,0-.661-.374,1.991,1.991,0,0,0-.733-.143,1.62,1.62,0,0,0-.428.055,1.13,1.13,0,0,0-.362.165.878.878,0,0,0-.251.281.759.759,0,0,0-.095.381v2.053a.82.82,0,0,0,.092.406.767.767,0,0,0,.247.273,1.008,1.008,0,0,0,.362.156,1.969,1.969,0,0,0,.449.048,3.021,3.021,0,0,0,.513-.039,1.711,1.711,0,0,0,.491-.191v-1.172h-.785v-.795h1.771Zm-7.738-17.085v20.436l11.277,4.332,11.278-4.332V426.777Z" transform="translate(-429.957 -420.748)" fill="#003368"/>
  <path id="Path_1100" data-name="Path 1100" d="M604.467,456.65h3.092l-5.071-6.751,4.689-5.692h-2.984l-3.585,4.762h-.721v-4.762h-2.269V456.65h2.269v-5.5h.805Z" transform="translate(-450.472 -423.315)" fill="#003368"/>
  <path id="Path_1101" data-name="Path 1101" d="M535.646,449.737h4.648v5.544q-.6.349-1.143.634a10.616,10.616,0,0,1-1.069.484,5.905,5.905,0,0,1-1.108.3,7.468,7.468,0,0,1-1.272.1,7.142,7.142,0,0,1-1.939-.248,4.614,4.614,0,0,1-1.555-.739,3.458,3.458,0,0,1-1.034-1.254,4.012,4.012,0,0,1-.375-1.8v-4.722a3.648,3.648,0,0,1,1.454-3.012,4.922,4.922,0,0,1,1.556-.765,6.442,6.442,0,0,1,1.876-.269,6.932,6.932,0,0,1,2.288.369,5.415,5.415,0,0,1,1.939,1.187l-1.024,1.647a6.065,6.065,0,0,0-1.518-.859,4.6,4.6,0,0,0-1.685-.331,3.8,3.8,0,0,0-.989.13,2.586,2.586,0,0,0-.832.385,1.984,1.984,0,0,0-.575.639,1.72,1.72,0,0,0-.22.879v4.722a1.9,1.9,0,0,0,.21.932,1.8,1.8,0,0,0,.571.632,2.4,2.4,0,0,0,.836.355,4.473,4.473,0,0,0,1.028.112,6.47,6.47,0,0,0,1.185-.093,3.7,3.7,0,0,0,1.128-.437v-2.692h-2.379Z" transform="translate(-440.632 -423.283)" fill="#003368"/>
  <path id="Path_1102" data-name="Path 1102" d="M550.885,448.227a2.091,2.091,0,0,0-.183-.912,1.7,1.7,0,0,0-.509-.629,2.122,2.122,0,0,0-.784-.357,4.2,4.2,0,0,0-.985-.109h-1.877v8.417h1.677a4.649,4.649,0,0,0,1.011-.107,2.53,2.53,0,0,0,.848-.356,1.881,1.881,0,0,0,.583-.631,1.83,1.83,0,0,0,.219-.932Zm-2.452-4.02a7.272,7.272,0,0,1,1.912.235,4.168,4.168,0,0,1,1.491.734,3.35,3.35,0,0,1,.97,1.254,4.305,4.305,0,0,1,.347,1.8v4.393a3.9,3.9,0,0,1-.385,1.8,3.485,3.485,0,0,1-1.05,1.257,4.494,4.494,0,0,1-1.566.729,7.285,7.285,0,0,1-1.921.24h-3.917V444.207Z" transform="translate(-442.623 -423.315)" fill="#003368"/>
  <path id="Path_1103" data-name="Path 1103" d="M562.777,451.859l-1.591-5.4-1.611,5.4Zm-.181-7.76,3.988,12.536H564.2l-.859-2.949h-4.338l-.879,2.949h-2.416l4.12-12.536Z" transform="translate(-444.301 -423.299)" fill="#003368"/>
  <path id="Path_1104" data-name="Path 1104" d="M578.551,444.207h2.014v12.443h-3.148l-5.051-9.83v9.83h-2.013V444.207h2.964l5.233,10.083Z" transform="translate(-446.457 -423.315)" fill="#003368"/>
  <path id="Path_1105" data-name="Path 1105" d="M589.873,449.279a12.324,12.324,0,0,1,1.7.549,4.853,4.853,0,0,1,1.273.75,2.906,2.906,0,0,1,.8,1.062,3.718,3.718,0,0,1,.274,1.5,3.392,3.392,0,0,1-.365,1.622,3.3,3.3,0,0,1-.988,1.134,4.272,4.272,0,0,1-1.457.657,7.073,7.073,0,0,1-1.746.211,6.743,6.743,0,0,1-1.446-.157,6.363,6.363,0,0,1-1.347-.449,5.623,5.623,0,0,1-1.169-.721,4.341,4.341,0,0,1-.906-.981l1.483-1.407a2.937,2.937,0,0,0,.592.632,5.675,5.675,0,0,0,.815.539,4.932,4.932,0,0,0,.917.384,3.032,3.032,0,0,0,.9.147,4.567,4.567,0,0,0,.877-.083,2.882,2.882,0,0,0,.786-.263,1.567,1.567,0,0,0,.567-.5,1.3,1.3,0,0,0,.221-.769,1.087,1.087,0,0,0-.3-.784,2.429,2.429,0,0,0-.76-.522,5.7,5.7,0,0,0-.987-.347c-.354-.092-.685-.183-.988-.266a14.864,14.864,0,0,1-1.549-.585,4.44,4.44,0,0,1-1.16-.743,2.84,2.84,0,0,1-.723-1.016,3.536,3.536,0,0,1-.247-1.389,3.321,3.321,0,0,1,.356-1.584,3.012,3.012,0,0,1,.97-1.09,4.238,4.238,0,0,1,1.427-.62,7.108,7.108,0,0,1,1.746-.206,5.752,5.752,0,0,1,2.326.442,7.687,7.687,0,0,1,1.775,1.061l-1.263,1.684a3.586,3.586,0,0,0-.548-.4,6.8,6.8,0,0,0-.713-.375,5.376,5.376,0,0,0-.8-.285,3.139,3.139,0,0,0-.779-.111,4.668,4.668,0,0,0-.821.076,2.284,2.284,0,0,0-.713.246,1.486,1.486,0,0,0-.506.458,1.241,1.241,0,0,0-.191.706,1.012,1.012,0,0,0,.248.7,2.23,2.23,0,0,0,.628.5,4.2,4.2,0,0,0,.861.35c.319.09.629.172.935.246" transform="translate(-448.539 -423.283)" fill="#003368"/>
  <path id="Path_1106" data-name="Path 1106" d="M616.7,451.859l-1.592-5.4-1.611,5.4Zm-.182-7.76,3.987,12.536h-2.379l-.859-2.949h-4.339l-.878,2.949h-2.415l4.116-12.536Z" transform="translate(-452.242 -423.299)" fill="#003368"/>
  <path id="Path_1107" data-name="Path 1107" d="M576.838,441.386h2.231l-1.724,3.026h-1.322l.815-3.024Z" transform="translate(-447.292 -422.9)" fill="#003368"/>
</svg>
